<?xml version="1.0" standalone="no"?>
<!DOCTYPE svg PUBLIC "-//W3C//DTD SVG 20010904//EN"
 "http://www.w3.org/TR/2001/REC-SVG-20010904/DTD/svg10.dtd">
<svg version="1.0" xmlns="http://www.w3.org/2000/svg"
 width="1200.000000pt" height="1200.000000pt" viewBox="0 0 1200.000000 1200.000000"
 preserveAspectRatio="xMidYMid meet">
<metadata>
Created by potrace 1.14, written by Peter Selinger 2001-2017
</metadata>
<g transform="translate(0.000000,1200.000000) scale(0.100000,-0.100000)"
fill="#000000" stroke="none">
<path d="M9365 10993 c-911 -56 -1812 -382 -2680 -971 -413 -279 -780 -586
-1170 -977 -903 -904 -1623 -1990 -2125 -3203 -103 -250 -123 -332 -123 -512
-1 -166 18 -265 78 -402 73 -168 102 -202 747 -844 357 -356 630 -620 669
-648 93 -64 238 -131 345 -158 69 -17 118 -22 219 -22 162 0 221 15 492 123
1049 420 1988 1004 2848 1770 178 158 562 544 724 726 988 1112 1520 2266
1602 3475 31 465 -35 1036 -163 1390 l-23 65 -114 38 c-347 117 -884 178
-1326 150z m582 -1009 c30 -6 32 -9 40 -63 13 -91 9 -554 -5 -676 -117 -957
-595 -1896 -1419 -2790 -172 -186 -514 -520 -680 -662 -733 -630 -1504 -1102
-2385 -1459 -86 -35 -162 -64 -168 -64 -10 0 -450 426 -993 959 l-87 86 36 90
c309 772 767 1557 1289 2210 364 454 813 913 1215 1240 740 603 1518 978 2281
1099 90 15 209 31 264 35 106 10 558 6 612 -5z"/>
<path d="M7825 8966 c-213 -35 -403 -132 -556 -285 -124 -125 -201 -255 -255
-436 -26 -83 -28 -104 -28 -265 0 -205 14 -273 90 -429 58 -122 113 -198 210
-292 96 -92 146 -126 266 -184 155 -75 224 -89 428 -89 161 0 182 3 265 27
375 113 633 394 717 782 7 34 12 118 11 195 -1 156 -26 273 -86 403 -68 147
-182 286 -317 389 -197 150 -499 225 -745 184z"/>
<path d="M2465 7275 c-803 -365 -1482 -675 -1509 -688 l-48 -23 943 -401 c519
-221 950 -403 956 -405 8 -2 46 80 101 217 262 648 582 1265 938 1808 57 86
98 157 91 156 -7 0 -669 -299 -1472 -664z"/>
<path d="M1907 4032 l-907 -907 0 -355 0 -355 1021 1021 1021 1021 -41 65
c-55 88 -124 235 -156 336 -15 45 -28 82 -29 82 0 0 -409 -408 -909 -908z"/>
<path d="M2187 2892 l-1187 -1187 0 -353 0 -352 352 0 353 0 1190 1190 1190
1190 -350 350 c-193 193 -353 350 -355 350 -3 0 -539 -534 -1193 -1188z"/>
<path d="M7860 3894 c-633 -411 -1243 -729 -1910 -996 -123 -49 -194 -83 -192
-90 2 -7 184 -437 404 -956 364 -854 403 -941 414 -920 6 13 312 685 679 1493
367 809 674 1482 681 1498 8 15 13 27 12 27 -2 0 -41 -25 -88 -56z"/>
<path d="M3430 2018 l-1015 -1018 350 0 350 0 903 903 c496 496 902 906 903
912 0 5 -35 21 -78 36 -104 35 -222 90 -309 144 -40 25 -76 44 -80 43 -5 -1
-466 -460 -1024 -1020z"/>
</g>
</svg>
